<svg width="203" height="191" viewBox="0 0 203 191" fill="none" xmlns="http://www.w3.org/2000/svg">
<g filter="url(#filter0_d)">
<path fill-rule="evenodd" clip-rule="evenodd" d="M114.478 0.292704C135.757 -1.63023 160.169 5.90714 172.646 23.2978C184.733 40.1452 169.613 63.8475 174.537 84.0051C178.841 101.625 199.73 112.975 198.98 131.101C198.17 150.701 188.411 172.964 170.529 180.923C152.615 188.897 133.873 171.537 114.478 168.712C99.1189 166.475 83.9836 170.661 69.1289 166.154C47.9004 159.713 22.1131 156.514 10.9479 137.299C-0.481544 117.63 3.43862 91.0495 13.6828 70.7342C23.2885 51.6853 45.9943 45.3699 63.4593 33.1643C80.4591 21.2838 93.8395 2.15765 114.478 0.292704Z" fill="#BB4517"/>
</g>
<defs>
<filter id="filter0_d" x="6.10352e-05" y="-3.05176e-05" width="203" height="191" filterUnits="userSpaceOnUse" color-interpolation-filters="sRGB">
<feFlood flood-opacity="0" result="BackgroundImageFix"/>
<feColorMatrix in="SourceAlpha" type="matrix" values="0 0 0 0 0 0 0 0 0 0 0 0 0 0 0 0 0 0 127 0"/>
<feOffset dy="4"/>
<feGaussianBlur stdDeviation="2"/>
<feColorMatrix type="matrix" values="0 0 0 0 0 0 0 0 0 0 0 0 0 0 0 0 0 0 0.2 0"/>
<feBlend mode="normal" in2="BackgroundImageFix" result="effect1_dropShadow"/>
<feBlend mode="normal" in="SourceGraphic" in2="effect1_dropShadow" result="shape"/>
</filter>
</defs>
</svg>
